<?xml version="1.0" encoding="utf-8"?>
<!-- Generator: Adobe Illustrator 22.1.0, SVG Export Plug-In . SVG Version: 6.00 Build 0)  -->
<svg version="1.1" id="Layer_1" xmlns="http://www.w3.org/2000/svg" xmlns:xlink="http://www.w3.org/1999/xlink" x="0px" y="0px"
	 viewBox="0 0 316.5 258" style="enable-background:new 0 0 316.5 258;" xml:space="preserve">
<style type="text/css">
	.st0{fill:none;stroke:#936A82;stroke-width:0.9;stroke-miterlimit:10;}
	.st1{fill:#781B4E;}
	.st2{fill:#E73134;}
</style>
<g>
	<g>
		<line class="st0" x1="150.7" y1="21.7" x2="174.4" y2="16"/>
		<line class="st0" x1="183.9" y1="38" x2="174.9" y2="18.9"/>
		<line class="st0" x1="184.2" y1="34.5" x2="203.2" y2="22.5"/>
		<line class="st0" x1="186.9" y1="41.2" x2="203.4" y2="57"/>
		<line class="st0" x1="164.2" y1="31.2" x2="172.9" y2="18.9"/>
		<line class="st0" x1="152.7" y1="25" x2="162.5" y2="31.5"/>
		<line class="st0" x1="165.2" y1="32.5" x2="177.7" y2="36"/>
		<line class="st0" x1="183.2" y1="41.5" x2="190.9" y2="77.2"/>
		<line class="st0" x1="147.4" y1="23" x2="130.4" y2="55.2"/>
		<line class="st0" x1="141.7" y1="51.3" x2="163.3" y2="32.3"/>
		<line class="st0" x1="143.9" y1="54.7" x2="188.9" y2="76"/>
		<line class="st0" x1="130.9" y1="56.7" x2="77.2" y2="87"/>
		<line class="st0" x1="140.9" y1="59.4" x2="177.2" y2="110"/>
		<line class="st0" x1="189.7" y1="79.2" x2="176.1" y2="108.5"/>
		<line class="st0" x1="73.7" y1="89" x2="23.7" y2="167.7"/>
		<line class="st0" x1="48.7" y1="159.2" x2="21.9" y2="168.2"/>
		<line class="st0" x1="53.7" y1="155" x2="130.4" y2="98"/>
		<line class="st0" x1="131.2" y1="93.8" x2="135.2" y2="60.7"/>
		<line class="st0" x1="135.2" y1="95" x2="151.4" y2="83.2"/>
		<line class="st0" x1="85.9" y1="148.7" x2="174.7" y2="111.5"/>
		<line class="st0" x1="130.4" y1="98" x2="124.2" y2="163.7"/>
		<line class="st0" x1="176.7" y1="112.7" x2="123.7" y2="165.5"/>
		<line class="st0" x1="87.7" y1="150.2" x2="118.2" y2="166.5"/>
		<line class="st0" x1="54.2" y1="158.4" x2="81.7" y2="150.7"/>
		<line class="st0" x1="81.4" y1="148" x2="19.4" y2="243.7"/>
		<line class="st0" x1="18.4" y1="239.2" x2="48.7" y2="157.2"/>
	</g>
	<g>
		<g>
			<circle class="st1" cx="150.5" cy="21.9" r="6.4"/>
			<circle class="st1" cx="137.3" cy="55.3" r="9.6"/>
			<circle class="st1" cx="183" cy="38.5" r="7.6"/>
			<circle class="st1" cx="174.1" cy="16.4" r="4.6"/>
			<circle class="st1" cx="164.4" cy="32" r="4.4"/>
			<circle class="st1" cx="190.5" cy="76.7" r="4.6"/>
			<circle class="st1" cx="121.9" cy="167.2" r="6.8"/>
			<circle class="st1" cx="82" cy="147.9" r="8"/>
			<circle class="st1" cx="50.4" cy="158.4" r="7.4"/>
		</g>
		<g>
			<circle class="st2" cx="155.4" cy="82.7" r="7.9"/>
			<circle class="st2" cx="203" cy="56.6" r="3.5"/>
			<circle class="st2" cx="203.9" cy="22.4" r="3.5"/>
			<circle class="st2" cx="132" cy="95.3" r="4.7"/>
			<circle class="st2" cx="175.7" cy="109.9" r="5.7"/>
			<circle class="st2" cx="74.5" cy="87.9" r="4.6"/>
			<circle class="st2" cx="23.3" cy="167.8" r="5.5"/>
			<circle class="st2" cx="47.8" cy="198.9" r="4.2"/>
			<circle class="st2" cx="17" cy="242.5" r="5.7"/>
		</g>
	</g>
	<g>
		<path class="st1" d="M88.4,204.4l-12.5-21.4v21.4h-6.4v-30.9H76l12.4,21v-21h6.4v30.9H88.4z"/>
		<path class="st1" d="M106.3,173.5v5.3h-6v-5.3H106.3z M106.3,181.5v22.9h-6v-22.9H106.3z"/>
		<path class="st1" d="M125.8,181.5h5.7v23.7c0,2.7-1,4.8-2.9,6.3c-1.9,1.5-4.6,2.2-8.1,2.2c-3.1,0-5.6-0.6-7.4-1.8
			c-1.9-1.2-2.8-2.8-2.8-4.7h6.2c0.5,1.8,1.9,2.7,4.2,2.7c1.5,0,2.7-0.4,3.7-1.3c0.9-0.9,1.4-2,1.4-3.4v-3.1
			c-1.1,1.2-2.1,2.1-3.1,2.6s-2.1,0.7-3.4,0.7c-2.9,0-5.1-1.1-6.9-3.3c-1.7-2.2-2.6-5-2.6-8.6c0-3.5,0.9-6.5,2.7-8.8
			c1.8-2.4,4.1-3.5,6.9-3.5c2.6,0,4.7,1.3,6.4,3.9V181.5z M120.6,186.1c-1.5,0-2.6,0.7-3.5,2c-0.9,1.4-1.3,3.1-1.3,5.3
			c0,2.1,0.4,3.7,1.3,5c0.9,1.3,2,2,3.5,2c1.6,0,2.8-0.6,3.8-2c1-1.3,1.5-3,1.5-5c0-2.1-0.5-3.9-1.5-5.3
			C123.4,186.8,122.1,186.1,120.6,186.1z"/>
		<path class="st1" d="M150.8,190.4c0-2.8-1.2-4.2-3.7-4.2c-1.3,0-2.4,0.4-3.3,1.3c-0.9,0.8-1.3,1.9-1.3,3.2v13.7h-6v-30.9h6v11.3
			c1.7-2.5,3.9-3.7,6.8-3.7c0.9,0,1.8,0.1,2.6,0.4c0.8,0.2,1.6,0.6,2.4,1.2s1.4,1.4,1.9,2.5c0.5,1.1,0.7,2.4,0.7,3.9v15.4h-6V190.4z
			"/>
		<path class="st1" d="M172.4,182v3.9h-3.3v12.5c0,1,0.1,1.7,0.4,2s0.8,0.5,1.6,0.5c0.3,0,0.8,0,1.4-0.1v4.2c-1,0.3-2.1,0.5-3.5,0.5
			c-3.9,0-5.9-1.8-5.9-5.4v-14.1h-3V182h3v-6.1h6v6.1H172.4z"/>
		<path class="st1" d="M182,173.5v5.3h-6v-5.3H182z M182,181.5v22.9h-6v-22.9H182z"/>
		<path class="st1" d="M187.8,181.5h6v3.3c1.7-2.5,4-3.7,6.9-3.7c2.5,0,4.4,0.7,5.7,2.1c1.4,1.4,2,3.3,2,5.9v15.4h-6v-14.1
			c0-2.7-1.3-4.1-3.9-4.1c-1.5,0-2.6,0.4-3.5,1.2c-0.9,0.8-1.3,1.9-1.3,3.3v13.7h-6V181.5z"/>
		<path class="st1" d="M235.7,183.3c-1.1-3.3-3.6-5-7.5-5c-2.7,0-4.8,0.9-6.4,2.8c-1.6,1.9-2.3,4.5-2.3,7.8c0,3.2,0.8,5.8,2.5,7.8
			c1.7,2,3.8,3.1,6.4,3.1c0.4,0,0.9,0,1.4-0.1c0.5-0.1,1.2-0.3,1.9-0.6c0.7-0.3,1.4-0.7,2.1-1.2c0.6-0.5,1.2-1.2,1.7-2
			c0.5-0.9,0.8-1.8,0.9-2.9h-7.1v-5.3h12.5v16.7h-3.9l-0.8-4.1c-1.2,1.7-2.5,3-4,3.8s-3.3,1.2-5.4,1.2c-4.2,0-7.7-1.5-10.5-4.6
			c-2.8-3.1-4.1-6.9-4.1-11.6c0-4.8,1.4-8.7,4.2-11.7s6.4-4.5,10.9-4.5c3.8,0,6.9,0.9,9.3,2.8s3.8,4.4,4.2,7.6H235.7z"/>
		<path class="st1" d="M251.9,205.4c-2.1,0-3.8-0.6-5.1-1.9c-1.3-1.3-1.9-2.9-1.9-5c0-4,2.3-6.4,6.8-7.2l2.4-0.4
			c0.1,0,0.3,0,0.9-0.1c0.5-0.1,0.8-0.1,1-0.2c0.1,0,0.4-0.1,0.8-0.2s0.7-0.2,0.9-0.3c0.2-0.1,0.4-0.3,0.6-0.4
			c0.2-0.2,0.4-0.4,0.5-0.6c0.1-0.2,0.1-0.5,0.1-0.8c0-1.5-1.2-2.3-3.5-2.3c-1.5,0-2.5,0.2-3.1,0.7c-0.6,0.5-1,1.3-1.1,2.5h-5.8
			c0.4-5.3,3.7-7.9,9.9-7.9c6.3,0,9.5,2.3,9.5,7v12.7c0,1,0.5,2,1.4,2.8v0.7h-6.5c-0.5-0.6-0.7-1.3-0.7-2.3
			C256.8,204.3,254.5,205.4,251.9,205.4z M258.9,195.2v-1.6c-0.5,0.3-1.4,0.5-2.5,0.7l-2.1,0.4c-1.3,0.3-2.1,0.6-2.7,1.1
			c-0.5,0.5-0.8,1.2-0.8,2c0,0.8,0.3,1.5,0.9,2c0.6,0.5,1.4,0.7,2.4,0.7c1.5,0,2.7-0.5,3.5-1.4C258.5,198.3,258.9,197,258.9,195.2z"
			/>
		<path class="st1" d="M275.7,173.5v30.9h-6v-30.9H275.7z"/>
		<path class="st1" d="M290,181.2c1,0,2,0.1,2.9,0.3c0.9,0.2,1.9,0.6,2.9,1.2s1.8,1.4,2.6,2.3c0.7,0.9,1.3,2.1,1.8,3.6
			c0.5,1.5,0.7,3.2,0.7,5.2c0,0.3,0,0.7,0,1h-15.5c0,0.9,0.1,1.6,0.2,2.3c0.1,0.6,0.4,1.3,0.7,1.9c0.3,0.6,0.8,1.1,1.5,1.4
			c0.6,0.3,1.4,0.5,2.4,0.5c2.3,0,3.8-1,4.6-2.9h5.9c-0.7,2.3-2,4.1-3.9,5.4s-4.2,2-6.8,2c-3.3,0-5.9-1.1-7.8-3.2
			c-1.9-2.1-2.8-5-2.8-8.7c0-3.8,1-6.9,2.9-9.1C284.1,182.3,286.7,181.2,290,181.2z M294.6,190.9c-0.1-1.7-0.6-3-1.4-3.9
			s-1.9-1.4-3.3-1.4c-2.6,0-4.1,1.7-4.5,5.2H294.6z"/>
	</g>
</g>
</svg>
